# Blender v2.79 (sub 0) OBJ File: 'race_asset_v1.blend'
# www.blender.org
o terrain-grass_Cube.701
v -3.999996 -4.000000 -1.000000
v -4.000000 3.999996 -1.000000
v 3.999996 4.000000 -1.000000
v 3.999999 -3.999997 -1.000000
v -3.999998 -3.999998 1.000000
v -3.999998 3.999999 1.000000
v 3.999997 3.999999 1.000000
v 4.000000 -3.999996 1.000000
v -3.999997 -3.999999 0.000000
v -3.999999 3.999997 0.000000
v 3.999997 3.999999 0.000000
v 3.999999 -3.999997 0.000000
vt 0.672242 0.543185
vt 0.984711 0.543185
vt 0.984710 0.580383
vt 0.672242 0.580383
vt 0.176426 0.039038
vt 0.176426 0.496847
vt 0.115727 0.496847
vt 0.115727 0.039038
vt 0.055028 0.039038
vt 0.115727 0.039038
vt 0.115727 0.496846
vt 0.055028 0.496846
vt 0.297825 0.496847
vt 0.237126 0.496846
vt 0.237126 0.039038
vt 0.297825 0.039038
vt 0.237126 0.496847
vt 0.176426 0.496846
vt 0.176426 0.039038
vt 0.237126 0.039038
vt 0.984710 0.617582
vt 0.672242 0.617582
vt 0.672242 0.580383
vt 0.984710 0.580383
vt 0.672242 0.617582
vt 0.984710 0.654781
vt 0.672242 0.654781
vt 0.672242 0.691979
vt 0.672242 0.654781
vt 0.984711 0.654781
vt 0.984711 0.691979
vt 0.984711 0.989568
vt 0.672242 0.989568
vt 0.672242 0.691979
vt 0.984711 0.691979
vn -1.0000 -0.0000 -0.0000
vn 0.0000 -1.0000 0.0000
vn -0.0000 1.0000 -0.0000
vn 1.0000 0.0000 -0.0000
vn 0.0000 0.0000 1.0000
s off
f 5/1/1 6/2/1 10/3/1 9/4/1
f 1/5/2 4/6/2 12/7/2 9/8/2
f 10/9/1 2/10/1 1/11/1 9/12/1
f 2/13/3 10/14/3 11/15/3 3/16/3
f 3/17/4 11/18/4 12/19/4 4/20/4
f 7/21/4 8/22/4 12/23/4 11/24/4
f 6/25/3 7/21/3 11/26/3 10/27/3
f 5/28/2 9/29/2 12/30/2 8/31/2
f 5/32/5 8/33/5 7/34/5 6/35/5
