# Blender v2.79 (sub 0) OBJ File: 'race_asset_v1.blend'
# www.blender.org
o track-checkpoint_Cube.001
v 3.999995 4.000001 -1.000000
v 4.000000 -3.999996 -1.000000
v 3.999996 4.000000 1.000000
v 4.000001 -3.999994 1.000000
v 3.000002 -3.999995 1.000000
v 2.999996 4.000000 1.000000
v 2.999996 4.000000 1.100000
v 1.999997 3.999999 1.100000
v 3.000002 -3.999995 1.100000
v 2.000002 -3.999996 1.100000
v 2.000002 -3.999996 1.000000
v 1.999997 3.999999 1.000000
v 3.999995 4.000001 0.000000
v 4.000001 -3.999995 0.000000
v 2.000002 -3.999997 0.000000
v 3.000001 -3.999996 0.000000
v 1.999997 3.999999 0.000000
v 2.999996 4.000000 0.000000
v 2.000000 -0.003770 1.100000
v 2.999999 0.286405 1.100000
v 2.999999 -0.293941 1.100000
v 3.000000 -0.303940 1.000000
v 2.999999 0.296405 1.000000
v 2.874999 0.286405 1.100000
v 2.875000 -0.293941 1.100000
v 3.499999 -0.303940 1.000000
v 3.499999 0.296405 1.000000
v 3.149999 -0.103940 3.000000
v 3.149999 0.096405 3.000000
v 2.000000 -0.013029 1.000000
v 2.000000 0.005488 1.000000
v 2.875000 -0.133607 2.703333
v 2.874999 0.126071 2.703333
v -4.000003 3.999993 -1.000000
v -3.999992 -4.000004 -1.000000
v -4.000004 3.999992 1.000000
v -3.999994 -4.000002 1.000000
v -2.999994 -4.000001 1.000000
v -3.000005 3.999994 1.000000
v -3.000005 3.999994 1.100000
v -2.000005 3.999995 1.100000
v -2.999994 -4.000001 1.100000
v -1.999994 -4.000000 1.100000
v -1.999994 -4.000000 1.000000
v -2.000005 3.999995 1.000000
v -4.000003 3.999993 0.000000
v -3.999993 -4.000003 0.000000
v -1.999994 -4.000000 0.000000
v -2.999993 -4.000002 0.000000
v -2.000005 3.999995 0.000000
v -3.000004 3.999994 0.000000
v -2.000000 -0.003774 1.100000
v -2.999999 0.286396 1.100000
v -2.999999 -0.293949 1.100000
v -2.999999 -0.303949 1.000000
v -2.999999 0.296396 1.000000
v -2.875000 0.286396 1.100000
v -2.875000 -0.293949 1.100000
v -3.499999 -0.303950 1.000000
v -3.499999 0.296395 1.000000
v -3.149999 -0.103949 3.000000
v -3.149999 0.096396 3.000000
v -2.000000 -0.013031 1.000000
v -2.000000 0.005486 1.000000
v -2.875000 -0.133616 2.703333
v -2.875000 0.126063 2.703333
vt 0.984807 0.268646
vt 0.984807 0.079844
vt 0.989660 0.079844
vt 0.989660 0.268646
vt 0.691515 0.275117
vt 0.691515 0.270139
vt 0.740133 0.270139
vt 0.740133 0.275117
vt 0.918196 0.079062
vt 0.924273 0.268522
vt 0.918196 0.268522
vt 0.979954 0.458199
vt 0.979954 0.269021
vt 0.984807 0.269021
vt 0.984807 0.458199
vt 0.857742 0.879529
vt 0.857742 0.566899
vt 0.877873 0.715631
vt 0.877873 0.731092
vt 0.898003 0.879529
vt 0.898003 0.731092
vt 0.898003 0.684135
vt 0.898003 0.645057
vt 0.938264 0.645057
vt 0.938264 0.684136
vt 0.898003 0.723214
vt 0.898003 0.684136
vt 0.938264 0.684136
vt 0.938264 0.723214
vt 0.898003 0.566899
vt 0.898003 0.715631
vt 0.240775 0.028810
vt 0.310792 0.087316
vt 0.310792 0.145822
vt 0.030726 0.496860
vt 0.100743 0.438354
vt 0.100743 0.496860
vt 0.310792 0.028810
vt 0.768167 0.418434
vt 0.768167 0.393544
vt 0.773029 0.393544
vt 0.768167 0.393544
vt 0.768167 0.418434
vt 0.763305 0.393544
vt 0.979954 0.477489
vt 0.975101 0.477489
vt 0.975101 0.280937
vt 0.979954 0.278479
vt 0.966814 0.079062
vt 0.966814 0.278370
vt 0.777220 0.879529
vt 0.777220 0.566899
vt 0.817481 0.566899
vt 0.817481 0.879529
vt 0.773029 0.387322
vt 0.850980 0.387322
vt 0.240775 0.496860
vt 0.170759 0.496860
vt 0.170759 0.028810
vt 0.691515 0.265161
vt 0.691515 0.215381
vt 0.740133 0.215381
vt 0.740133 0.265161
vt 0.740133 0.324897
vt 0.691515 0.324897
vt 0.778251 0.463183
vt 0.778251 0.443948
vt 0.858040 0.443948
vt 0.858040 0.463183
vt 0.924273 0.288217
vt 0.918196 0.477302
vt 0.918196 0.288217
vt 0.310792 0.379847
vt 0.240775 0.496860
vt 0.691515 0.270139
vt 0.740133 0.270139
vt 0.616646 0.279565
vt 0.616646 0.457177
vt 0.438865 0.457177
vt 0.438865 0.279565
vt 0.100743 0.379848
vt 0.763305 0.387322
vt 0.685354 0.387322
vt 0.616646 0.101613
vt 0.616646 0.279565
vt 0.438864 0.279565
vt 0.438864 0.101613
vt 0.865404 0.401011
vt 0.670931 0.401011
vt 0.674109 0.443736
vt 0.674109 0.424501
vt 0.774068 0.424501
vt 0.774068 0.443736
vt 0.966814 0.477302
vt 0.975101 0.276021
vt 0.975101 0.079844
vt 0.979954 0.079844
vt 0.984807 0.269021
vt 0.989660 0.269021
vt 0.989660 0.457823
vt 0.984807 0.457823
vt 0.691515 0.374677
vt 0.740133 0.374677
vt 0.740133 0.379655
vt 0.691515 0.379655
vt 0.918196 0.079062
vt 0.918196 0.268522
vt 0.912119 0.268522
vt 0.979954 0.079844
vt 0.984807 0.079844
vt 0.984807 0.269021
vt 0.979954 0.269021
vt 0.857742 0.879529
vt 0.837612 0.731092
vt 0.837612 0.715631
vt 0.857742 0.566899
vt 0.817481 0.879529
vt 0.817481 0.731092
vt 0.898003 0.645057
vt 0.898003 0.605978
vt 0.938264 0.605978
vt 0.938264 0.645057
vt 0.898003 0.605978
vt 0.898003 0.566899
vt 0.938264 0.566899
vt 0.938264 0.605978
vt 0.817481 0.715631
vt 0.817481 0.566899
vt 0.310792 0.438354
vt 0.030726 0.028810
vt 0.100743 0.028810
vt 0.100743 0.087316
vt 0.310792 0.496860
vt 0.768167 0.069974
vt 0.773029 0.094864
vt 0.768167 0.094864
vt 0.768167 0.094864
vt 0.763305 0.094864
vt 0.768167 0.069974
vt 0.970248 0.477489
vt 0.970248 0.278479
vt 0.975101 0.280937
vt 0.975101 0.477489
vt 0.869578 0.079062
vt 0.869578 0.278370
vt 0.493495 0.620489
vt 0.493495 0.614230
vt 0.366924 0.614230
vt 0.366924 0.620489
vt 0.736959 0.566899
vt 0.777220 0.566899
vt 0.777220 0.879529
vt 0.736959 0.879529
vt 0.850980 0.101086
vt 0.773029 0.101086
vt 0.170759 0.028810
vt 0.170759 0.496860
vt 0.100743 0.496860
vt 0.739680 0.207266
vt 0.691061 0.207266
vt 0.691061 0.157486
vt 0.739680 0.157486
vt 0.691515 0.324897
vt 0.740133 0.324897
vt 0.857986 0.441618
vt 0.778196 0.441618
vt 0.778196 0.422382
vt 0.857986 0.422382
vt 0.912119 0.288217
vt 0.918196 0.288217
vt 0.918196 0.477302
vt 0.100743 0.145822
vt 0.739680 0.212244
vt 0.691061 0.212244
vt 0.435670 0.277789
vt 0.390668 0.277789
vt 0.390668 0.100007
vt 0.435670 0.100007
vt 0.763305 0.101086
vt 0.685354 0.101086
vt 0.390867 0.457416
vt 0.390867 0.279635
vt 0.435869 0.279635
vt 0.435869 0.457416
vt 0.865404 0.087397
vt 0.670931 0.087397
vt 0.774068 0.462971
vt 0.674109 0.462971
vt 0.674109 0.443736
vt 0.774068 0.443736
vt 0.869578 0.477302
vt 0.975101 0.276021
vt 0.970248 0.079844
vt 0.975101 0.079844
vt 0.829737 0.214880
vt 0.813072 0.214880
vt 0.813072 0.132219
vt 0.829737 0.132219
vt 0.865404 0.191935
vt 0.850980 0.196498
vt 0.829737 0.289635
vt 0.846401 0.289635
vt 0.846402 0.380203
vt 0.829737 0.380203
vt 0.685354 0.196498
vt 0.670931 0.191935
vn 1.0000 0.0000 0.0000
vn -0.0000 1.0000 0.0000
vn -0.0000 0.0000 1.0000
vn 0.0000 -1.0000 0.0000
vn -0.0000 0.9950 0.0995
vn 0.0000 -0.9950 0.0995
vn -1.0000 -0.0000 -0.0000
vn 0.9850 0.0000 0.1724
vn -0.9850 0.0000 0.1724
vn 0.0000 0.0000 -1.0000
s off
f 21/1/1 9/2/1 5/3/1 22/4/1
f 12/5/2 8/6/2 7/7/2 6/8/2
f 7/9/3 24/10/3 20/11/3
f 7/12/1 20/13/1 23/14/1 6/15/1
f 4/16/3 3/17/3 27/18/3 26/19/3
f 5/20/3 26/19/3 22/21/3
f 5/22/4 16/23/4 14/24/4 4/25/4
f 6/26/2 3/27/2 13/28/2 18/29/2
f 27/18/3 6/30/3 23/31/3
f 2/32/4 16/33/4 15/34/4
f 1/35/2 18/36/2 13/37/2
f 2/32/4 14/38/4 16/33/4
f 4/16/3 26/19/3 5/20/3
f 27/39/5 23/40/5 20/41/5
f 22/42/6 26/43/6 21/44/6
f 8/45/7 12/46/7 31/47/7 19/48/7
f 8/49/3 19/50/3 24/10/3 7/9/3
f 3/51/1 4/52/1 14/53/1 13/54/1
f 20/41/5 24/55/5 33/56/5
f 1/57/1 13/58/1 14/59/1 2/32/1
f 3/17/3 6/30/3 27/18/3
f 11/60/4 15/61/4 16/62/4 5/63/4
f 12/5/2 6/8/2 18/64/2 17/65/2
f 24/66/7 25/67/7 32/68/7 33/69/7
f 25/70/3 9/71/3 21/72/3
f 2/32/4 15/34/4 48/73/4 35/74/4
f 10/75/4 11/60/4 5/63/4 9/76/4
f 11/77/3 30/78/3 63/79/3 44/80/3
f 1/35/2 17/81/2 18/36/2
f 25/82/6 21/44/6 32/83/6
f 31/84/3 12/85/3 45/86/3 64/87/3
f 27/39/5 20/41/5 33/56/5 29/88/5
f 21/44/6 26/43/6 28/89/6 32/83/6
f 26/90/8 27/91/8 29/92/8 28/93/8
f 19/50/3 10/94/3 9/71/3 25/70/3
f 19/50/3 25/70/3 24/10/3
f 19/48/7 31/47/7 30/95/7
f 19/48/7 30/95/7 11/96/7 10/97/7
f 54/98/7 55/99/7 38/100/7 42/101/7
f 45/102/2 39/103/2 40/104/2 41/105/2
f 40/106/3 53/107/3 57/108/3
f 40/109/7 39/110/7 56/111/7 53/112/7
f 37/113/3 59/114/3 60/115/3 36/116/3
f 38/117/3 55/118/3 59/114/3
f 38/119/4 37/120/4 47/121/4 49/122/4
f 39/123/2 51/124/2 46/125/2 36/126/2
f 60/115/3 56/127/3 39/128/3
f 35/74/4 48/73/4 49/129/4
f 34/130/2 46/131/2 51/132/2
f 35/74/4 49/129/4 47/133/4
f 37/113/3 38/117/3 59/114/3
f 60/134/5 53/135/5 56/136/5
f 55/137/6 54/138/6 59/139/6
f 41/140/1 52/141/1 64/142/1 45/143/1
f 41/144/3 40/106/3 57/108/3 52/145/3
f 30/146/3 31/147/3 64/148/3 63/149/3
f 36/150/7 46/151/7 47/152/7 37/153/7
f 53/135/5 66/154/5 57/155/5
f 34/156/7 35/157/7 47/158/7 46/131/7
f 36/116/3 60/115/3 39/128/3
f 44/159/4 38/160/4 49/161/4 48/162/4
f 45/102/2 50/163/2 51/164/2 39/103/2
f 57/165/1 66/166/1 65/167/1 58/168/1
f 58/169/3 54/170/3 42/171/3
f 1/35/2 34/130/2 50/172/2 17/81/2
f 43/173/4 42/174/4 38/160/4 44/159/4
f 12/175/2 17/176/2 50/177/2 45/178/2
f 34/130/2 51/132/2 50/172/2
f 58/179/6 65/180/6 54/138/6
f 11/181/4 44/182/4 48/183/4 15/184/4
f 60/134/5 62/185/5 66/154/5 53/135/5
f 54/138/6 65/180/6 61/186/6 59/139/6
f 59/187/9 61/188/9 62/189/9 60/190/9
f 52/145/3 58/169/3 42/171/3 43/191/3
f 52/145/3 57/108/3 58/169/3
f 52/141/1 63/192/1 64/142/1
f 52/141/1 43/193/1 44/194/1 63/192/1
f 33/195/10 32/196/10 65/197/10 66/198/10
f 29/199/5 33/200/5 66/154/5 62/185/5
f 28/201/3 29/202/3 62/203/3 61/204/3
f 32/205/6 28/206/6 61/186/6 65/180/6
