# Blender v2.79 (sub 0) OBJ File: 'race_asset_v1.blend'
# www.blender.org
o track-tire_Cube.629
v 4.000000 -3.999996 -1.000000
v 4.000001 -3.999994 1.000000
v 3.000002 -3.999995 1.000000
v 3.000002 -3.999995 1.100000
v 2.000002 -3.999996 1.100000
v 2.000002 -3.999996 1.000000
v 4.000001 -3.999995 0.000000
v 2.000002 -3.999997 0.000000
v 3.000001 -3.999996 0.000000
v 3.000000 -0.999997 1.100000
v 3.000000 -0.999997 1.000000
v 3.697684 -0.999960 1.000000
v 4.000009 -0.863930 1.000000
v 2.329754 -0.864141 1.756984
v 2.617360 -1.000002 1.850433
v 3.516707 -0.999960 2.142649
v 3.804234 -0.863930 2.236072
v 1.981807 -0.864141 2.439869
v 2.226459 -1.000002 2.617620
v 2.991489 -0.999960 3.173447
v 3.236074 -0.863930 3.351149
v 1.439866 -0.864141 2.981810
v 1.617616 -1.000002 3.226463
v 2.173443 -0.999960 3.991493
v 2.351144 -0.863930 4.236078
v 0.756981 -0.864141 3.329758
v 0.850429 -1.000002 3.617364
v 1.142644 -0.999960 4.516711
v 1.236067 -0.863930 4.804238
v 2.433812 -0.864141 1.099987
v 2.736218 -1.000002 1.099993
v 3.999992 4.000004 -1.000000
v 3.999994 4.000002 1.000000
v 2.999994 4.000001 1.000000
v 2.999994 4.000001 1.100000
v 1.999994 4.000000 1.100000
v 1.999994 4.000000 1.000000
v 3.999993 4.000003 0.000000
v 1.999994 4.000000 0.000000
v 2.999993 4.000002 0.000000
v 2.999998 1.000003 1.100000
v 2.999998 1.000003 1.000000
v 3.697682 0.999967 1.000000
v 4.000007 0.863938 1.000000
v 2.329752 0.864145 1.756984
v 2.617358 1.000007 1.850433
v 3.516705 0.999967 2.142649
v 3.804232 0.863938 2.236072
v 1.981805 0.864145 2.439869
v 2.226457 1.000006 2.617620
v 2.991487 0.999966 3.173447
v 3.236072 0.863937 3.351149
v 1.439864 0.864143 2.981810
v 1.617614 1.000005 3.226463
v 2.173441 0.999964 3.991493
v 2.351142 0.863935 4.236078
v 0.756979 0.864142 3.329758
v 0.850427 1.000003 3.617364
v 1.142642 0.999962 4.516711
v 1.236066 0.863933 4.804238
v 2.433810 0.864146 1.099987
v 2.736216 1.000008 1.099993
v -3.999992 -4.000004 -1.000000
v -3.999994 -4.000002 1.000000
v -2.999994 -4.000001 1.000000
v -2.999994 -4.000001 1.100000
v -1.999994 -4.000000 1.100000
v -1.999994 -4.000000 1.000000
v -3.999993 -4.000003 0.000000
v -1.999994 -4.000000 0.000000
v -2.999993 -4.000002 0.000000
v -2.999998 -1.000003 1.100000
v -2.999998 -1.000003 1.000000
v -3.697682 -0.999967 1.000000
v -4.000007 -0.863938 1.000000
v -2.329752 -0.864145 1.756984
v -2.617358 -1.000007 1.850433
v -3.516705 -0.999967 2.142649
v -3.804232 -0.863938 2.236072
v -1.981805 -0.864145 2.439869
v -2.226457 -1.000006 2.617620
v -2.991487 -0.999966 3.173447
v -3.236072 -0.863937 3.351149
v -1.439864 -0.864143 2.981810
v -1.617614 -1.000005 3.226463
v -2.173441 -0.999964 3.991493
v -2.351142 -0.863935 4.236078
v -0.756979 -0.864142 3.329758
v -0.850427 -1.000003 3.617364
v -1.142642 -0.999962 4.516711
v -1.236066 -0.863933 4.804238
v 0.000001 -0.864141 3.449652
v 0.000001 -1.000002 3.752059
v 0.000001 -0.999960 4.697688
v 0.000001 -0.863931 5.000012
v -2.433810 -0.864146 1.099987
v -2.736216 -1.000008 1.099993
v -4.000000 3.999996 -1.000000
v -4.000001 3.999994 1.000000
v -3.000002 3.999995 1.000000
v -3.000002 3.999995 1.100000
v -2.000002 3.999996 1.100000
v -2.000002 3.999996 1.000000
v -4.000001 3.999995 0.000000
v -2.000002 3.999997 0.000000
v -3.000001 3.999996 0.000000
v -3.000000 0.999997 1.100000
v -3.000000 0.999997 1.000000
v -3.697684 0.999960 1.000000
v -4.000009 0.863930 1.000000
v -2.329754 0.864141 1.756984
v -2.617360 1.000002 1.850433
v -3.516707 0.999960 2.142649
v -3.804234 0.863930 2.236072
v -1.981807 0.864141 2.439869
v -2.226459 1.000002 2.617620
v -2.991489 0.999960 3.173447
v -3.236074 0.863930 3.351149
v -1.439866 0.864141 2.981810
v -1.617616 1.000002 3.226463
v -2.173443 0.999960 3.991493
v -2.351144 0.863930 4.236078
v -0.756981 0.864141 3.329758
v -0.850429 1.000002 3.617364
v -1.142644 0.999960 4.516711
v -1.236067 0.863930 4.804238
v -0.000001 0.864141 3.449652
v -0.000001 1.000002 3.752059
v -0.000001 0.999960 4.697688
v -0.000001 0.863931 5.000012
v -2.433812 0.864141 1.099987
v -2.736218 1.000002 1.099993
v 4.000001 -3.999995 0.000000
v 4.000001 -3.999994 1.000000
v 4.000001 -3.999994 1.000000
v 3.000002 -3.999995 1.000000
v 3.000002 -3.999995 1.000000
v 3.000002 -3.999995 1.100000
v 3.000002 -3.999995 1.100000
v 2.000002 -3.999996 1.000000
v 2.000002 -3.999996 1.000000
v 2.000002 -3.999996 1.100000
v 2.000002 -3.999996 1.100000
v 4.000000 -3.999996 -1.000000
v 3.000000 -0.999997 1.000000
v 3.000000 -0.999997 1.000000
v 3.000000 -0.999997 1.100000
v 3.000000 -0.999997 1.100000
v 4.000009 -0.863930 1.000000
v 4.000009 -0.863930 1.000000
v 3.697684 -0.999960 1.000000
v 2.433812 -0.864141 1.099987
v 2.433812 -0.864141 1.099987
v 2.329754 -0.864141 1.756984
v 3.804234 -0.863930 2.236072
v 3.236074 -0.863930 3.351149
v 1.981807 -0.864141 2.439869
v 2.351144 -0.863930 4.236078
v 1.439866 -0.864141 2.981810
v 1.236067 -0.863930 4.804238
v 0.756981 -0.864141 3.329758
v 0.000001 -0.863931 5.000012
v 0.000001 -0.864141 3.449652
v -1.999994 -4.000000 1.100000
v -1.999994 -4.000000 1.100000
v -2.000002 3.999996 1.100000
v -2.000002 3.999996 1.100000
v 2.736218 -1.000002 1.099993
v -1.999994 -4.000000 1.000000
v -1.999994 -4.000000 1.000000
v -2.000002 3.999996 1.000000
v -2.000002 3.999996 1.000000
v 3.999993 4.000003 0.000000
v 3.999994 4.000002 1.000000
v 3.999994 4.000002 1.000000
v 2.999994 4.000001 1.000000
v 2.999994 4.000001 1.000000
v 2.999994 4.000001 1.100000
v 2.999994 4.000001 1.100000
v 1.999994 4.000000 1.000000
v 1.999994 4.000000 1.000000
v 1.999994 4.000000 1.100000
v 1.999994 4.000000 1.100000
v 3.999992 4.000004 -1.000000
v 2.999998 1.000003 1.000000
v 2.999998 1.000003 1.000000
v 2.999998 1.000003 1.100000
v 2.999998 1.000003 1.100000
v 4.000007 0.863938 1.000000
v 4.000007 0.863938 1.000000
v 3.697682 0.999967 1.000000
v 2.433810 0.864146 1.099987
v 2.433810 0.864146 1.099987
v 2.329752 0.864145 1.756984
v 3.804232 0.863938 2.236072
v 3.236072 0.863937 3.351149
v 1.981805 0.864145 2.439869
v 2.351142 0.863935 4.236078
v 1.439864 0.864143 2.981810
v 1.236066 0.863933 4.804238
v 0.756979 0.864142 3.329758
v -0.000001 0.863931 5.000012
v -0.000001 0.864141 3.449652
v -2.433812 0.864141 1.099987
v -2.433812 0.864141 1.099987
v -2.433810 -0.864146 1.099987
v -2.433810 -0.864146 1.099987
v 2.736216 1.000008 1.099993
v -3.999993 -4.000003 0.000000
v -3.999994 -4.000002 1.000000
v -3.999994 -4.000002 1.000000
v -2.999994 -4.000001 1.000000
v -2.999994 -4.000001 1.000000
v -2.999994 -4.000001 1.100000
v -2.999994 -4.000001 1.100000
v -3.999992 -4.000004 -1.000000
v -2.999998 -1.000003 1.000000
v -2.999998 -1.000003 1.000000
v -2.999998 -1.000003 1.100000
v -2.999998 -1.000003 1.100000
v -4.000007 -0.863938 1.000000
v -4.000007 -0.863938 1.000000
v -3.697682 -0.999967 1.000000
v -2.329752 -0.864145 1.756984
v -3.804232 -0.863938 2.236072
v -3.236072 -0.863937 3.351149
v -1.981805 -0.864145 2.439869
v -2.351142 -0.863935 4.236078
v -1.439864 -0.864143 2.981810
v -1.236066 -0.863933 4.804238
v -0.756979 -0.864142 3.329758
v -2.736216 -1.000008 1.099993
v -4.000001 3.999995 0.000000
v -4.000001 3.999994 1.000000
v -4.000001 3.999994 1.000000
v -3.000002 3.999995 1.000000
v -3.000002 3.999995 1.000000
v -3.000002 3.999995 1.100000
v -3.000002 3.999995 1.100000
v -4.000000 3.999996 -1.000000
v -3.000000 0.999997 1.000000
v -3.000000 0.999997 1.000000
v -3.000000 0.999997 1.100000
v -3.000000 0.999997 1.100000
v -4.000009 0.863930 1.000000
v -4.000009 0.863930 1.000000
v -3.697684 0.999960 1.000000
v -2.329754 0.864141 1.756984
v -3.804234 0.863930 2.236072
v -3.236074 0.863930 3.351149
v -1.981807 0.864141 2.439869
v -2.351144 0.863930 4.236078
v -1.439866 0.864141 2.981810
v -1.236067 0.863930 4.804238
v -0.756981 0.864141 3.329758
v -2.736218 1.000002 1.099993
vt 0.223535 0.637803
vt 0.223535 0.624792
vt 0.254301 0.624792
vt 0.254301 0.637803
vt 0.223535 0.610533
vt 0.254301 0.610533
vt 0.265459 0.660051
vt 0.248823 0.662449
vt 0.248823 0.657066
vt 0.263631 0.654931
vt 0.907930 0.311363
vt 0.907930 0.502567
vt 0.898697 0.502567
vt 0.898697 0.311363
vt 0.280466 0.653092
vt 0.276989 0.648737
vt 0.323238 0.635462
vt 0.312125 0.655312
vt 0.307340 0.652148
vt 0.317614 0.633799
vt 0.294814 0.671065
vt 0.291338 0.666711
vt 0.273002 0.681179
vt 0.271175 0.676060
vt 0.248823 0.684664
vt 0.248823 0.679282
vt 0.704872 0.326854
vt 0.680516 0.518058
vt 0.680515 0.326854
vt 0.307507 0.613458
vt 0.321154 0.613458
vt 0.307507 0.615238
vt 0.903280 0.711589
vt 0.903279 0.541404
vt 0.925154 0.548786
vt 0.975636 0.548788
vt 0.975636 0.711589
vt 0.243059 0.014985
vt 0.318572 0.077912
vt 0.318572 0.140840
vt 0.830923 0.820123
vt 0.830923 0.765856
vt 0.903278 0.765856
vt 0.903278 0.820123
vt 0.243059 0.518407
vt 0.167546 0.518406
vt 0.167545 0.014985
vt 0.243059 0.014985
vt 0.327068 0.613459
vt 0.868351 0.286288
vt 0.868351 0.222553
vt 0.960685 0.222553
vt 0.960685 0.286288
vt 0.300022 0.628597
vt 0.302347 0.615238
vt 0.292375 0.642254
vt 0.287590 0.639090
vt 0.294396 0.626934
vt 0.732794 0.318195
vt 0.772850 0.518058
vt 0.296431 0.615238
vt 0.318572 0.392551
vt 0.243059 0.518406
vt 0.223535 0.598404
vt 0.254301 0.598404
vt 0.868351 0.292661
vt 0.960685 0.292661
vt 0.120962 0.577744
vt 0.133091 0.577744
vt 0.133091 0.608510
vt 0.120962 0.608510
vt 0.147349 0.577744
vt 0.147349 0.608510
vt 0.071917 0.655103
vt 0.073744 0.649983
vt 0.088552 0.652117
vt 0.088552 0.657500
vt 0.880230 0.311363
vt 0.889463 0.311363
vt 0.889463 0.502567
vt 0.880230 0.502567
vt 0.056909 0.648144
vt 0.060386 0.643789
vt 0.014137 0.630514
vt 0.019761 0.628851
vt 0.030035 0.647200
vt 0.025251 0.650364
vt 0.046037 0.661763
vt 0.042561 0.666117
vt 0.066200 0.671112
vt 0.064373 0.676231
vt 0.088552 0.674334
vt 0.088552 0.679716
vt 0.704872 0.199384
vt 0.680515 0.199385
vt 0.680515 0.008181
vt 0.029868 0.608510
vt 0.029868 0.610290
vt 0.016221 0.608510
vt 0.834224 0.825019
vt 0.856098 0.987823
vt 0.834223 0.995205
vt 0.906579 0.825019
vt 0.906579 0.987821
vt 0.903279 0.765856
vt 0.903279 0.711589
vt 0.975635 0.711589
vt 0.975635 0.765856
vt 0.010307 0.608510
vt 0.865184 0.014554
vt 0.957518 0.014554
vt 0.957518 0.078289
vt 0.865184 0.078289
vt 0.035028 0.610290
vt 0.037353 0.623649
vt 0.045000 0.637306
vt 0.049785 0.634142
vt 0.042979 0.621986
vt 0.772850 0.008181
vt 0.732794 0.208043
vt 0.040944 0.610290
vt 0.092032 0.518406
vt 0.167545 0.392551
vt 0.167545 0.455478
vt 0.975227 0.518058
vt 0.975227 0.008181
vt 0.984460 0.008181
vt 0.984460 0.518058
vt 0.865184 0.008181
vt 0.957518 0.008181
vt 0.276600 0.598404
vt 0.276600 0.632212
vt 0.265338 0.632212
vt 0.265338 0.598404
vt 0.232188 0.660051
vt 0.234016 0.654931
vt 0.907930 0.311363
vt 0.917164 0.311363
vt 0.917164 0.502567
vt 0.907930 0.502567
vt 0.217181 0.653092
vt 0.220658 0.648737
vt 0.174408 0.635462
vt 0.180033 0.633799
vt 0.190306 0.652148
vt 0.185522 0.655312
vt 0.206308 0.666711
vt 0.202832 0.671065
vt 0.226472 0.676060
vt 0.224645 0.681179
vt 0.797206 0.199384
vt 0.772850 0.199385
vt 0.772850 0.008181
vt 0.190140 0.613458
vt 0.190140 0.615238
vt 0.176493 0.613458
vt 0.906580 0.825019
vt 0.928454 0.987823
vt 0.906579 0.995205
vt 0.978936 0.825019
vt 0.978936 0.987821
vt 0.318572 0.455478
vt 0.978936 0.770752
vt 0.978936 0.825019
vt 0.906581 0.825019
vt 0.906581 0.770752
vt 0.830923 0.805356
vt 0.830923 0.975541
vt 0.758567 0.975541
vt 0.170579 0.613459
vt 0.244694 0.588859
vt 0.244694 0.558101
vt 0.269174 0.558101
vt 0.269174 0.588859
vt 0.030112 0.608510
vt 0.030112 0.577752
vt 0.053394 0.577752
vt 0.053394 0.608510
vt 0.010307 0.608510
vt 0.010307 0.577752
vt 0.865184 0.154771
vt 0.957518 0.154771
vt 0.957518 0.218505
vt 0.865184 0.218505
vt 0.195300 0.615238
vt 0.197625 0.628597
vt 0.205271 0.642254
vt 0.210057 0.639090
vt 0.203251 0.626934
vt 0.865184 0.008181
vt 0.825128 0.208043
vt 0.292456 0.588859
vt 0.292456 0.558101
vt 0.312261 0.558101
vt 0.312261 0.588859
vt 0.201215 0.615238
vt 0.254301 0.632212
vt 0.254301 0.598404
vt 0.865184 0.148397
vt 0.957518 0.148397
vt 0.188728 0.577744
vt 0.188728 0.608510
vt 0.176599 0.608510
vt 0.176599 0.577744
vt 0.162341 0.608510
vt 0.162341 0.577744
vt 0.105187 0.655103
vt 0.103359 0.649983
vt 0.889463 0.502567
vt 0.889463 0.311363
vt 0.898697 0.311363
vt 0.898697 0.502567
vt 0.120194 0.648144
vt 0.116717 0.643789
vt 0.162967 0.630514
vt 0.151853 0.650364
vt 0.147069 0.647200
vt 0.157343 0.628851
vt 0.134543 0.666117
vt 0.131067 0.661763
vt 0.112731 0.676231
vt 0.110903 0.671112
vt 0.830923 0.711589
vt 0.758567 0.541404
vt 0.830923 0.541404
vt 0.797206 0.326854
vt 0.772850 0.518058
vt 0.772850 0.326854
vt 0.147235 0.608510
vt 0.160883 0.608510
vt 0.147235 0.610290
vt 0.830923 0.711589
vt 0.830923 0.541404
vt 0.852798 0.548786
vt 0.903279 0.548788
vt 0.903279 0.711589
vt 0.092032 0.014985
vt 0.167545 0.077912
vt 0.167545 0.140840
vt 0.903278 0.711589
vt 0.903278 0.765856
vt 0.830923 0.765856
vt 0.830923 0.711589
vt 0.166797 0.608510
vt 0.686211 0.711589
vt 0.686211 0.541404
vt 0.758567 0.541404
vt 0.092032 0.014985
vt 0.092032 0.518406
vt 0.016519 0.518406
vt 0.016519 0.014985
vt 0.240326 0.589439
vt 0.217044 0.589439
vt 0.217044 0.558681
vt 0.240326 0.558681
vt 0.077875 0.608510
vt 0.077875 0.577752
vt 0.101157 0.608510
vt 0.101157 0.577752
vt 0.865184 0.142024
vt 0.865184 0.078289
vt 0.957518 0.078289
vt 0.957518 0.142024
vt 0.139750 0.623649
vt 0.142075 0.610290
vt 0.132104 0.637306
vt 0.127318 0.634142
vt 0.134124 0.621986
vt 0.825128 0.318195
vt 0.865184 0.518058
vt 0.120962 0.608510
vt 0.120962 0.577752
vt 0.197239 0.589439
vt 0.197239 0.558681
vt 0.136160 0.610290
vt 0.865184 0.148397
vt 0.957518 0.148397
vt 0.167545 0.518406
vt 0.647975 0.261061
vt 0.647975 0.432353
vt 0.590878 0.432353
vt 0.590878 0.261061
vt 0.758567 0.975541
vt 0.686211 0.805356
vt 0.167545 0.014985
vt 0.642167 0.254163
vt 0.585070 0.254163
vt 0.585070 0.082871
vt 0.642167 0.082871
vt 0.686211 0.975541
vt 0.975227 0.518058
vt 0.965993 0.518058
vt 0.965993 0.008181
vt 0.975226 0.008181
vt 0.585070 0.082871
vt 0.585070 0.425455
vt 0.356681 0.425455
vt 0.356681 0.082871
vt 0.318572 0.518406
vt 0.318572 0.014985
vn 0.9877 0.0000 -0.1564
vn 0.9510 0.0000 -0.3090
vn 0.8090 0.0000 -0.5878
vn -0.0585 -0.9819 -0.1801
vn 0.0000 -0.9819 -0.1893
vn 0.0000 -0.9122 -0.4098
vn -0.1266 -0.9122 -0.3897
vn 1.0000 0.0000 0.0000
vn -0.1113 -0.9819 -0.1532
vn -0.2409 -0.9122 -0.3315
vn 0.3902 -0.9119 0.1268
vn 0.3319 -0.9119 0.2412
vn 0.1858 -0.9732 0.1350
vn 0.2185 -0.9732 0.0710
vn 0.2412 -0.9119 0.3319
vn 0.1350 -0.9732 0.1858
vn 0.1268 -0.9119 0.3902
vn 0.0710 -0.9732 0.2185
vn 0.0000 -0.9119 0.4103
vn 0.0000 -0.9732 0.2297
vn 0.0000 0.0000 1.0000
vn 0.0000 -1.0000 0.0000
vn 0.2296 -0.9726 0.0363
vn 0.4094 -0.9100 0.0649
vn -0.1801 -0.9819 -0.0585
vn -0.1892 -0.9814 -0.0300
vn -0.1532 -0.9819 -0.1113
vn -0.3315 -0.9122 -0.2409
vn -0.3897 -0.9122 -0.1266
vn -0.4089 -0.9102 -0.0648
vn 0.5878 0.0000 -0.8090
vn 0.3090 0.0000 -0.9510
vn 0.0000 0.0000 -1.0000
vn -0.0585 0.9819 -0.1801
vn -0.1266 0.9122 -0.3897
vn 0.0000 0.9122 -0.4098
vn 0.0000 0.9819 -0.1893
vn -0.1113 0.9819 -0.1532
vn -0.2409 0.9122 -0.3315
vn 0.3902 0.9119 0.1268
vn 0.2185 0.9732 0.0710
vn 0.1858 0.9732 0.1350
vn 0.3319 0.9119 0.2412
vn 0.1350 0.9732 0.1858
vn 0.2412 0.9119 0.3319
vn 0.0710 0.9732 0.2185
vn 0.1268 0.9119 0.3902
vn 0.0000 0.9732 0.2297
vn 0.0000 0.9119 0.4103
vn 0.0000 1.0000 0.0000
vn 0.2296 0.9726 0.0363
vn 0.4094 0.9100 0.0649
vn -0.1892 0.9814 -0.0300
vn -0.1801 0.9819 -0.0585
vn -0.1532 0.9819 -0.1113
vn -0.3315 0.9122 -0.2409
vn -0.3898 0.9122 -0.1266
vn -0.4089 0.9102 -0.0648
vn -1.0000 0.0000 0.0000
vn -0.9877 0.0000 -0.1564
vn -0.9510 0.0000 -0.3090
vn 0.0585 -0.9819 -0.1801
vn 0.1266 -0.9122 -0.3897
vn 0.1113 -0.9819 -0.1532
vn 0.2409 -0.9122 -0.3315
vn -0.3902 -0.9119 0.1268
vn -0.2185 -0.9732 0.0710
vn -0.1858 -0.9732 0.1350
vn -0.3319 -0.9119 0.2412
vn -0.1350 -0.9732 0.1858
vn -0.2412 -0.9119 0.3319
vn -0.0710 -0.9732 0.2185
vn -0.1268 -0.9119 0.3902
vn -0.2296 -0.9726 0.0363
vn -0.9986 0.0000 0.0523
vn -0.4094 -0.9100 0.0649
vn -0.9510 0.0000 0.3090
vn -0.3090 0.0000 0.9510
vn -0.5878 0.0000 0.8090
vn 0.1892 -0.9814 -0.0300
vn 0.1801 -0.9819 -0.0585
vn 0.1532 -0.9819 -0.1113
vn 0.3315 -0.9122 -0.2409
vn 0.3898 -0.9122 -0.1266
vn -0.8090 0.0000 0.5878
vn 0.4089 -0.9102 -0.0648
vn -0.8090 0.0000 -0.5878
vn -0.5878 0.0000 -0.8090
vn -0.3090 0.0000 -0.9510
vn 0.0585 0.9819 -0.1801
vn 0.1266 0.9122 -0.3897
vn 0.1113 0.9819 -0.1532
vn 0.2409 0.9122 -0.3315
vn -0.3902 0.9119 0.1268
vn -0.3319 0.9119 0.2412
vn -0.1858 0.9732 0.1350
vn -0.2185 0.9732 0.0710
vn -0.2412 0.9119 0.3319
vn -0.1350 0.9732 0.1858
vn -0.1268 0.9119 0.3902
vn -0.0710 0.9732 0.2185
vn -0.2296 0.9726 0.0363
vn -0.4094 0.9100 0.0649
vn 0.9986 0.0000 0.0523
vn 0.9510 0.0000 0.3090
vn 0.3090 0.0000 0.9510
vn 0.5878 0.0000 0.8090
vn 0.1801 0.9819 -0.0585
vn 0.1892 0.9814 -0.0300
vn 0.1532 0.9819 -0.1113
vn 0.3315 0.9122 -0.2409
vn 0.3897 0.9122 -0.1266
vn 0.8090 0.0000 0.5878
vn 0.4089 0.9102 -0.0648
s 1
f 204/1/1 248/2/2 224/3/2 206/4/1
f 248/2/2 251/5/3 227/6/3 224/3/2
f 27/7/4 93/8/5 163/9/6 161/10/7
f 147/11/8 138/12/8 136/13/8 145/14/8
f 23/15/9 27/7/4 161/10/7 159/16/10
f 155/17/11 156/18/12 20/19/13 16/20/14
f 156/18/12 158/21/15 24/22/16 20/19/13
f 158/21/15 160/23/17 28/24/18 24/22/16
f 160/23/17 162/25/19 94/26/20 28/24/18
f 31/27/21 139/28/21 148/29/21
f 146/30/22 12/31/23 16/20/14 10/32/22
f 135/33/21 149/34/21 151/35/21
f 135/33/21 151/35/21 11/36/21 3/37/21
f 1/38/22 9/39/22 8/40/22
f 137/41/22 9/42/22 133/43/22 134/44/22
f 184/45/8 173/46/8 7/47/8 144/48/8
f 150/49/24 155/17/11 16/20/14 12/31/23
f 140/50/22 8/51/22 9/52/22 137/53/22
f 10/32/22 16/20/14 15/54/25 168/55/26
f 28/24/18 94/26/20 93/8/5 27/7/4
f 24/22/16 28/24/18 27/7/4 23/15/9
f 19/56/27 23/15/9 159/16/10 157/57/28
f 15/54/25 19/56/27 157/57/28 154/58/29
f 31/27/21 153/59/21 143/60/21 139/28/21
f 20/19/13 24/22/16 23/15/9 19/56/27
f 168/55/26 15/54/25 154/58/29 152/61/30
f 16/20/14 20/19/13 19/56/27 15/54/25
f 1/38/22 8/40/22 70/62/22 216/63/22
f 251/5/3 253/64/31 229/65/31 227/6/3
f 142/66/22 140/50/22 137/53/22 4/67/22
f 253/68/31 255/69/32 231/70/32 229/71/31
f 255/69/32 127/72/33 92/73/33 231/70/32
f 58/74/34 201/75/35 203/76/36 128/77/37
f 187/78/8 185/79/8 176/80/8 178/81/8
f 54/82/38 199/83/39 201/75/35 58/74/34
f 195/84/40 47/85/41 51/86/42 196/87/43
f 196/87/43 51/86/42 55/88/44 198/89/45
f 198/89/45 55/88/44 59/90/46 200/91/47
f 200/91/47 59/90/46 129/92/48 202/93/49
f 62/94/21 188/95/21 179/96/21
f 186/97/50 41/98/50 47/85/41 43/99/51
f 175/100/21 191/101/21 189/102/21
f 175/100/21 34/103/21 42/104/21 191/101/21
f 177/105/50 174/106/50 38/107/50 40/108/50
f 190/109/52 43/99/51 47/85/41 195/84/40
f 181/110/50 177/111/50 40/112/50 39/113/50
f 41/98/50 208/114/53 46/115/54 47/85/41
f 59/90/46 58/74/34 128/77/37 129/92/48
f 55/88/44 54/82/38 58/74/34 59/90/46
f 50/116/55 197/117/56 199/83/39 54/82/38
f 46/115/54 194/118/57 197/117/56 50/116/55
f 62/94/21 179/96/21 183/119/21 193/120/21
f 51/86/42 50/116/55 54/82/38 55/88/44
f 208/114/53 192/121/58 194/118/57 46/115/54
f 47/85/41 46/115/54 50/116/55 51/86/42
f 32/122/50 39/123/50 40/124/50
f 5/125/59 182/126/59 180/127/59 141/128/59
f 36/129/50 35/130/50 177/111/50 181/110/50
f 183/119/21 143/60/21 153/59/21 193/120/21
f 61/131/60 30/132/60 14/133/61 45/134/61
f 89/135/62 88/136/63 163/9/6 93/8/5
f 219/137/59 217/138/59 212/139/59 214/140/59
f 85/141/64 84/142/65 88/136/63 89/135/62
f 225/143/66 78/144/67 82/145/68 226/146/69
f 226/146/69 82/145/68 86/147/70 228/148/71
f 228/148/71 86/147/70 90/149/72 230/150/73
f 230/150/73 90/149/72 94/26/20 162/25/19
f 97/151/21 220/152/21 215/153/21
f 218/154/22 72/155/22 78/144/67 74/156/74
f 211/157/21 223/158/21 221/159/21
f 211/157/21 65/160/21 73/161/21 223/158/21
f 216/63/22 70/62/22 71/162/22
f 213/163/22 210/164/22 209/165/22 71/166/22
f 245/167/75 234/168/59 233/169/59
f 222/170/76 74/156/74 78/144/67 225/143/66
f 245/171/75 75/172/75 79/173/77 249/174/77
f 254/175/78 91/176/78 95/177/21 130/178/21
f 252/179/79 87/180/79 91/176/78 254/175/78
f 170/181/22 213/182/22 71/183/22 70/184/22
f 72/155/22 232/185/80 77/186/81 78/144/67
f 90/149/72 89/135/62 93/8/5 94/26/20
f 86/147/70 85/141/64 89/135/62 90/149/72
f 81/187/82 80/188/83 84/142/65 85/141/64
f 77/186/81 76/189/84 80/188/83 81/187/82
f 97/151/21 215/153/21 164/190/21 207/191/21
f 82/145/68 81/187/82 85/141/64 86/147/70
f 250/192/85 83/193/85 87/194/79 252/195/79
f 249/174/77 79/173/77 83/193/85 250/192/85
f 232/185/80 96/196/86 76/189/84 77/186/81
f 78/144/67 77/186/81 81/187/82 82/145/68
f 45/134/61 14/133/61 18/197/87 49/198/87
f 165/199/22 66/200/22 213/182/22 170/181/22
f 49/201/87 18/202/87 22/203/88 53/204/88
f 53/204/88 22/203/88 26/205/89 57/206/89
f 124/207/90 128/77/37 203/76/36 123/208/91
f 243/209/59 238/210/59 236/211/59 241/212/59
f 120/213/92 124/207/90 123/208/91 119/214/93
f 114/215/94 118/216/95 117/217/96 113/218/97
f 118/216/95 122/219/98 121/220/99 117/217/96
f 122/219/98 126/221/100 125/222/101 121/220/99
f 75/223/75 69/224/59 64/225/59
f 126/221/100 202/93/49 129/92/48 125/222/101
f 132/226/21 239/227/21 244/228/21
f 242/229/50 109/230/102 113/218/97 107/231/50
f 235/232/21 246/233/21 247/234/21
f 235/232/21 247/234/21 108/235/21 100/236/21
f 98/237/50 106/238/50 105/239/50
f 237/240/50 106/241/50 104/242/50 99/243/50
f 110/244/103 114/215/94 113/218/97 109/230/102
f 13/245/104 2/246/8 7/247/8
f 240/248/59 63/249/59 69/250/59 233/251/59
f 233/169/59 69/224/59 75/223/75 245/167/75
f 44/252/104 48/253/105 17/254/105 13/255/104
f 60/256/106 130/178/21 95/177/21 29/257/106
f 56/258/107 60/256/106 29/257/106 25/259/107
f 172/260/50 105/261/50 106/262/50 237/263/50
f 107/231/50 113/218/97 112/264/108 256/265/109
f 125/222/101 129/92/48 128/77/37 124/207/90
f 121/220/99 125/222/101 124/207/90 120/213/92
f 116/266/110 120/213/92 119/214/93 115/267/111
f 112/264/108 116/266/110 115/267/111 111/268/112
f 132/226/21 205/269/21 166/270/21 239/227/21
f 117/217/96 121/220/99 120/213/92 116/266/110
f 52/271/113 56/258/107 25/259/107 21/272/113
f 48/253/105 52/273/113 21/274/113 17/254/105
f 256/265/109 112/264/108 111/268/112 131/275/114
f 113/218/97 117/217/96 116/266/110 112/264/108
f 32/122/50 98/237/50 105/239/50 39/123/50
f 57/206/89 26/205/89 92/73/33 127/72/33
f 167/276/50 172/260/50 237/263/50 101/277/50
f 32/122/50 40/124/50 38/278/50
f 140/279/22 170/280/22 70/281/22 8/282/22
f 173/283/8 44/284/104 13/245/104 7/247/8
f 98/237/50 104/285/50 106/238/50
f 181/286/50 39/287/50 105/288/50 172/289/50
f 44/284/104 173/283/8 33/290/8
f 166/270/21 205/269/21 207/191/21 164/190/21
f 67/291/8 169/292/8 171/293/8 102/294/8
f 103/295/21 68/296/21 6/297/21 37/298/21
f 216/63/22 71/162/22 209/299/22
f 1/38/22 133/300/22 9/39/22
