# Blender v2.79 (sub 0) OBJ File: 'race_asset_v1.blend'
# www.blender.org
o track-pit-entrylane-small_Cube.032
v 3.999993 4.000003 -1.000000
v -3.000004 3.999993 1.000000
v 0.999995 3.999998 1.000000
v -3.900005 3.999991 1.100000
v -3.900005 3.999991 2.000000
v -4.000005 3.999991 2.000000
v -3.000000 3.999993 1.100000
v -4.000000 3.999994 -1.000000
v -4.000000 3.999993 0.000000
v 4.000005 -3.999997 -1.000000
v -2.999992 -4.000007 1.000000
v -0.999993 -4.000005 1.000000
v -3.899993 -4.000009 1.100000
v -3.899993 -4.000009 1.200000
v -3.999994 -4.000009 1.200000
v -2.999989 -4.000006 1.100000
v -3.999989 -4.000007 -1.000000
v -3.999989 -4.000007 0.000000
v 3.999989 -3.999996 1.000000
v 0.999983 3.999999 1.100000
v 0.999983 3.999999 2.000000
v 1.099983 3.999999 2.000000
v 1.099978 4.000000 1.000000
v 3.999978 4.000005 1.000000
v -0.000005 -4.000003 1.100000
v -1.000011 -4.000003 1.100000
v 3.999989 -3.999996 0.000000
v 3.999978 4.000005 0.000000
v -4.000001 1.633324 1.200000
v -3.900002 1.633325 1.200000
v -3.900002 1.633325 1.100000
v -3.000001 1.633326 1.000000
v -2.999997 1.633327 1.100000
v -0.999997 -1.333338 1.000000
v -0.000014 -1.333335 1.000000
v 1.099981 1.633334 1.000000
v 1.099987 1.633332 1.100000
v -0.000009 -1.333336 1.100000
v 0.999986 1.633332 1.100000
v -1.000014 -1.333337 1.100000
v -0.000002 -4.000003 1.000000
v -0.999997 -4.000003 0.000000
v 0.000000 -4.000001 0.000000
v -2.999991 -4.000005 0.000000
v 1.099986 4.000000 0.000000
v 0.999986 4.000000 0.000000
v -3.000002 3.999994 0.000000
vt 0.776751 0.032005
vt 0.674486 0.032003
vt 0.674486 0.037304
vt 0.776751 0.037306
vt 0.674486 0.032003
vt 0.767873 0.032003
vt 0.767873 0.026702
vt 0.674486 0.026702
vt 0.981633 0.218032
vt 0.981633 0.170321
vt 0.890170 0.212730
vt 0.890170 0.218031
vt 0.674486 0.021401
vt 0.674486 0.026702
vt 0.765950 0.026702
vt 0.765950 0.021401
vt 0.981375 0.122611
vt 0.889988 0.122611
vt 0.889988 0.170321
vt 0.981375 0.170321
vt 0.697227 0.823375
vt 0.697228 0.951153
vt 0.876966 0.951153
vt 0.672462 0.281722
vt 0.672462 0.334734
vt 0.763925 0.292325
vt 0.763925 0.281723
vt 0.880706 0.292325
vt 0.880706 0.281723
vt 0.764110 0.090318
vt 0.764853 0.095521
vt 0.885450 0.122611
vt 0.792416 0.085017
vt 0.792417 0.037306
vt 0.788547 0.037307
vt 0.788547 0.090318
vt 0.746655 0.681223
vt 0.876966 0.567820
vt 0.921901 0.951153
vt 0.921900 0.567820
vt 0.979257 0.392666
vt 0.672462 0.392666
vt 0.672462 0.456280
vt 0.888497 0.456280
vt 0.746655 0.567820
vt 0.425793 0.156659
vt 0.489136 0.156659
vt 0.489136 0.061645
vt 0.425793 0.061645
vt 0.246357 0.092623
vt 0.246357 0.319571
vt 0.319165 0.035886
vt 0.027933 0.433046
vt 0.100741 0.489783
vt 0.027933 0.319572
vt 0.966835 0.567820
vt 0.921901 0.567820
vt 0.921901 0.759486
vt 0.966835 0.759486
vt 0.983764 0.292325
vt 0.983764 0.281723
vt 0.246357 0.489783
vt 0.246357 0.035886
vt 0.173549 0.035886
vt 0.173549 0.489783
vt 0.749852 0.090318
vt 0.749852 0.037306
vt 0.246357 0.325245
vt 0.319165 0.489783
vt 0.921901 0.759486
vt 0.921901 0.898444
vt 0.966835 0.898444
vt 0.966835 0.759486
vt 0.173549 0.035886
vt 0.100741 0.035886
vt 0.100741 0.489783
vt 0.173549 0.489783
vt 0.979257 0.498689
vt 0.920110 0.090318
vt 0.920110 0.085017
vt 0.881415 0.085017
vt 0.885284 0.090318
vt 0.027933 0.262835
vt 0.100741 0.035886
vt 0.027933 0.035887
vt 0.881415 0.090318
vt 0.842720 0.085017
vt 0.842720 0.090318
vt 0.362450 0.061645
vt 0.362450 0.251674
vt 0.425793 0.251674
vt 0.425793 0.061645
vt 0.882745 0.345843
vt 0.889432 0.392666
vt 0.990487 0.365576
vt 0.983799 0.318753
vt 0.027933 0.489783
vt 0.842720 0.037307
vt 0.804025 0.037307
vt 0.842720 0.090318
vt 0.707287 0.042608
vt 0.707287 0.090318
vt 0.711157 0.090318
vt 0.749852 0.037307
vt 0.672462 0.042608
vt 0.672462 0.037307
vt 0.749852 0.090318
vt 0.796286 0.085017
vt 0.796286 0.090318
vt 0.800155 0.085017
vt 0.800155 0.037306
vt 0.500831 0.188331
vt 0.627517 0.061645
vt 0.500831 0.061645
vt 0.246357 0.489782
vt 0.985399 0.032003
vt 0.985399 0.026702
vt 0.672462 0.212730
vt 0.672462 0.218031
vt 0.983658 0.026702
vt 0.983658 0.021401
vt 0.672462 0.122611
vt 0.672462 0.170321
vt 0.246357 0.035886
vt 0.672462 0.114887
vt 0.673205 0.120089
vt 0.984932 0.218032
vt 0.894172 0.218032
vt 0.984933 0.265742
vt 0.431154 0.329269
vt 0.627517 0.441703
vt 0.627517 0.329269
vt 0.762148 0.318753
vt 0.768835 0.365576
vt 0.896197 0.032004
vt 0.896197 0.037305
vn -1.0000 -0.0000 -0.0002
vn 0.0000 -0.3202 0.9473
vn 1.0000 0.0000 -0.0000
vn 0.0000 0.0000 1.0000
vn 0.9376 -0.3477 -0.0001
vn 0.0000 -1.0000 0.0000
vn -1.0000 -0.0000 -0.0000
vn -0.0000 1.0000 0.0000
vn -0.0000 -0.3554 0.9347
vn -0.9363 0.3511 -0.0001
s off
f 34/1/1 12/2/1 26/3/1 40/4/1
f 6/5/2 29/6/2 30/7/2 5/8/2
f 4/9/3 5/10/3 30/11/3 31/12/3
f 2/13/3 7/14/3 33/15/3 32/16/3
f 4/17/4 31/18/4 33/19/4 7/20/4
f 35/21/4 41/22/4 19/23/4
f 23/24/3 22/25/3 37/26/3 36/27/3
f 36/27/5 37/26/5 38/28/5 35/29/5
f 37/30/4 39/31/4 38/32/4
f 25/33/6 26/34/6 12/35/6 41/36/6
f 36/37/4 35/21/4 19/23/4 24/38/4
f 24/38/3 19/23/3 27/39/3 28/40/3
f 9/41/7 18/42/7 15/43/7 29/44/7
f 23/45/4 36/37/4 24/38/4
f 42/46/6 12/47/6 11/48/6 44/49/6
f 47/50/8 46/51/8 8/52/8
f 44/53/6 17/54/6 42/55/6
f 27/56/6 19/57/6 41/58/6 43/59/6
f 35/29/3 38/28/3 25/60/3 41/61/3
f 8/62/7 17/63/7 18/64/7 9/65/7
f 43/66/6 41/36/6 12/35/6 42/67/6
f 46/51/8 45/68/8 1/69/8 8/52/8
f 28/70/8 45/71/8 23/72/8 24/73/8
f 1/74/3 28/75/3 27/76/3 10/77/3
f 9/41/7 29/44/7 6/78/7
f 21/79/8 22/80/8 23/81/8 20/82/8
f 43/83/6 10/84/6 27/85/6
f 20/82/8 23/81/8 3/86/8
f 42/55/6 17/54/6 10/84/6 43/83/6
f 45/87/8 46/88/8 3/86/8 23/81/8
f 46/89/8 47/90/8 2/91/8 3/92/8
f 38/93/4 40/94/4 26/95/4 25/96/4
f 18/97/6 17/54/6 44/53/6
f 44/98/6 11/99/6 18/100/6
f 4/101/8 7/102/8 2/103/8 9/104/8
f 5/105/8 4/101/8 9/104/8 6/106/8
f 47/107/8 9/104/8 2/103/8
f 14/108/6 15/109/6 18/100/6 13/110/6
f 13/110/6 18/100/6 11/99/6 16/111/6
f 34/112/4 11/113/4 12/114/4
f 45/68/8 28/115/8 1/69/8
f 29/6/4 15/116/4 14/117/4 30/7/4
f 31/12/3 30/11/3 14/118/3 13/119/3
f 32/16/3 33/15/3 16/120/3 11/121/3
f 31/18/4 13/122/4 16/123/4 33/19/4
f 9/124/8 47/50/8 8/52/8
f 22/125/9 21/126/9 39/31/9 37/30/9
f 20/127/7 39/128/7 21/129/7
f 3/130/4 2/131/4 32/132/4
f 39/133/4 20/134/4 40/94/4 38/93/4
f 3/135/10 34/1/10 40/4/10 20/136/10
f 3/130/4 32/132/4 11/113/4 34/112/4
